<svg width="720" height="900" viewBox="0 0 720 900" fill="none" xmlns="http://www.w3.org/2000/svg" role="img" aria-labelledby="title desc">
  <title id="title">Helen Santos sensory visual placeholder</title>
  <desc id="desc">Abstract editorial illustration generated as a temporary AI placeholder for Helen Santos.</desc>
  <defs>
    <linearGradient id="bg" x1="96" y1="60" x2="610" y2="810" gradientUnits="userSpaceOnUse">
      <stop stop-color="#FFF7F0"/>
      <stop offset="1" stop-color="#F0E2D5"/>
    </linearGradient>
    <linearGradient id="stroke" x1="212" y1="166" x2="520" y2="742" gradientUnits="userSpaceOnUse">
      <stop stop-color="#B56F5A"/>
      <stop offset="1" stop-color="#7C463C"/>
    </linearGradient>
    <radialGradient id="glow" cx="0" cy="0" r="1" gradientUnits="userSpaceOnUse" gradientTransform="translate(382 386) rotate(90) scale(280 248)">
      <stop stop-color="#D8B27A" stop-opacity="0.8"/>
      <stop offset="1" stop-color="#D8B27A" stop-opacity="0"/>
    </radialGradient>
  </defs>
  <rect width="720" height="900" rx="56" fill="url(#bg)"/>
  <circle cx="524" cy="224" r="104" fill="#FFFDF8" fill-opacity="0.9"/>
  <ellipse cx="330" cy="330" rx="248" ry="210" fill="url(#glow)"/>
  <path d="M196 710C250 622 274 544 284 478C295 404 320 336 362 298C407 257 461 256 509 284" stroke="url(#stroke)" stroke-width="3.5" stroke-linecap="round"/>
  <path d="M225 741C301 666 336 598 352 534C367 474 382 440 416 402C451 363 495 339 558 336" stroke="url(#stroke)" stroke-width="3.5" stroke-linecap="round" stroke-opacity="0.7"/>
  <path d="M246 620C286 540 314 495 364 460C416 425 476 419 538 448" stroke="#7C463C" stroke-width="2.2" stroke-linecap="round" stroke-opacity="0.35"/>
  <path d="M341 204C300 245 284 308 286 360C288 423 316 493 366 546C414 598 474 628 536 632" stroke="#845248" stroke-width="4" stroke-linecap="round" stroke-opacity="0.18"/>
  <circle cx="359" cy="280" r="34" fill="#FFFDF8" fill-opacity="0.9" stroke="#C68E73" stroke-opacity="0.4"/>
  <path d="M320 329C342 314 366 309 395 312C439 317 473 348 490 387" stroke="#9A5D4C" stroke-width="3.2" stroke-linecap="round"/>
  <path d="M266 768C351 802 434 810 539 787" stroke="#B56F5A" stroke-width="2.8" stroke-linecap="round" stroke-opacity="0.5"/>
  <g opacity="0.95">
    <rect x="84" y="94" width="164" height="44" rx="22" fill="#FFFDF9" stroke="#D4B186" stroke-opacity="0.55"/>
    <text x="166" y="123" fill="#8B5647" font-family="Mulish, Segoe UI, sans-serif" font-size="16" font-weight="700" text-anchor="middle" letter-spacing="2.6">AI PLACEHOLDER</text>
  </g>
  <text x="112" y="816" fill="#432E29" font-family="Cormorant Garamond, Georgia, serif" font-size="64" font-weight="700">Helen Santos</text>
  <text x="114" y="860" fill="#8A6E65" font-family="Mulish, Segoe UI, sans-serif" font-size="22" font-weight="600" letter-spacing="1.8">presenca . rito . sensorialidade</text>
</svg>
